<mxfile host="Electron" modified="2024-05-30T12:59:07.187Z" agent="Mozilla/5.0 (Windows NT 10.0; Win64; x64) AppleWebKit/537.36 (KHTML, like Gecko) draw.io/21.2.8 Chrome/112.0.5615.165 Electron/24.2.0 Safari/537.36" etag="eBi9SgZ5VjeO6HVZfe6Y" version="21.2.8" type="device">
  <diagram name="Page-1" id="NwYEvmrauzfis9k1FVj6">
    <mxGraphModel dx="1642" dy="871" grid="1" gridSize="10" guides="1" tooltips="1" connect="1" arrows="1" fold="1" page="1" pageScale="1" pageWidth="827" pageHeight="1169" math="0" shadow="0">
      <root>
        <mxCell id="0" />
        <mxCell id="1" parent="0" />
        <mxCell id="r8Yt8SE6gwDf1YbaC7X--10" value=" MainFrame" style="swimlane;fontStyle=0;childLayout=stackLayout;horizontal=1;startSize=26;fillColor=none;horizontalStack=0;resizeParent=1;resizeParentMax=0;resizeLast=0;collapsible=1;marginBottom=0;whiteSpace=wrap;html=1;" vertex="1" parent="1">
          <mxGeometry x="340" y="50" width="230" height="224" as="geometry" />
        </mxCell>
        <mxCell id="r8Yt8SE6gwDf1YbaC7X--11" value="-bank: Bank&amp;lt;Account&amp;gt; " style="text;strokeColor=none;fillColor=none;align=left;verticalAlign=top;spacingLeft=4;spacingRight=4;overflow=hidden;rotatable=0;points=[[0,0.5],[1,0.5]];portConstraint=eastwest;whiteSpace=wrap;html=1;" vertex="1" parent="r8Yt8SE6gwDf1YbaC7X--10">
          <mxGeometry y="26" width="230" height="26" as="geometry" />
        </mxCell>
        <mxCell id="r8Yt8SE6gwDf1YbaC7X--12" value="-nameField: JTextField " style="text;strokeColor=none;fillColor=none;align=left;verticalAlign=top;spacingLeft=4;spacingRight=4;overflow=hidden;rotatable=0;points=[[0,0.5],[1,0.5]];portConstraint=eastwest;whiteSpace=wrap;html=1;" vertex="1" parent="r8Yt8SE6gwDf1YbaC7X--10">
          <mxGeometry y="52" width="230" height="26" as="geometry" />
        </mxCell>
        <mxCell id="r8Yt8SE6gwDf1YbaC7X--21" value="-customerIdField: JTextField " style="text;strokeColor=none;fillColor=none;align=left;verticalAlign=top;spacingLeft=4;spacingRight=4;overflow=hidden;rotatable=0;points=[[0,0.5],[1,0.5]];portConstraint=eastwest;whiteSpace=wrap;html=1;" vertex="1" parent="r8Yt8SE6gwDf1YbaC7X--10">
          <mxGeometry y="78" width="230" height="26" as="geometry" />
        </mxCell>
        <mxCell id="r8Yt8SE6gwDf1YbaC7X--15" value="-accountNumberField: JTextField" style="text;strokeColor=none;fillColor=none;align=left;verticalAlign=top;spacingLeft=4;spacingRight=4;overflow=hidden;rotatable=0;points=[[0,0.5],[1,0.5]];portConstraint=eastwest;whiteSpace=wrap;html=1;" vertex="1" parent="r8Yt8SE6gwDf1YbaC7X--10">
          <mxGeometry y="104" width="230" height="22" as="geometry" />
        </mxCell>
        <mxCell id="r8Yt8SE6gwDf1YbaC7X--13" value="-amountField: JFormattedTextField" style="text;strokeColor=none;fillColor=none;align=left;verticalAlign=top;spacingLeft=4;spacingRight=4;overflow=hidden;rotatable=0;points=[[0,0.5],[1,0.5]];portConstraint=eastwest;whiteSpace=wrap;html=1;" vertex="1" parent="r8Yt8SE6gwDf1YbaC7X--10">
          <mxGeometry y="126" width="230" height="20" as="geometry" />
        </mxCell>
        <mxCell id="r8Yt8SE6gwDf1YbaC7X--16" value="-overdraftLimitField: JTextField" style="text;strokeColor=none;fillColor=none;align=left;verticalAlign=top;spacingLeft=4;spacingRight=4;overflow=hidden;rotatable=0;points=[[0,0.5],[1,0.5]];portConstraint=eastwest;whiteSpace=wrap;html=1;" vertex="1" parent="r8Yt8SE6gwDf1YbaC7X--10">
          <mxGeometry y="146" width="230" height="22" as="geometry" />
        </mxCell>
        <mxCell id="r8Yt8SE6gwDf1YbaC7X--17" value="-interestRateField: JTextField" style="text;strokeColor=none;fillColor=none;align=left;verticalAlign=top;spacingLeft=4;spacingRight=4;overflow=hidden;rotatable=0;points=[[0,0.5],[1,0.5]];portConstraint=eastwest;whiteSpace=wrap;html=1;" vertex="1" parent="r8Yt8SE6gwDf1YbaC7X--10">
          <mxGeometry y="168" width="230" height="28" as="geometry" />
        </mxCell>
        <mxCell id="r8Yt8SE6gwDf1YbaC7X--18" value=" -outputArea: JTextArea" style="text;strokeColor=none;fillColor=none;align=left;verticalAlign=top;spacingLeft=4;spacingRight=4;overflow=hidden;rotatable=0;points=[[0,0.5],[1,0.5]];portConstraint=eastwest;whiteSpace=wrap;html=1;" vertex="1" parent="r8Yt8SE6gwDf1YbaC7X--10">
          <mxGeometry y="196" width="230" height="28" as="geometry" />
        </mxCell>
        <mxCell id="r8Yt8SE6gwDf1YbaC7X--75" style="edgeStyle=orthogonalEdgeStyle;rounded=0;orthogonalLoop=1;jettySize=auto;html=1;exitX=0.5;exitY=1;exitDx=0;exitDy=0;entryX=0.5;entryY=0;entryDx=0;entryDy=0;" edge="1" parent="1" source="r8Yt8SE6gwDf1YbaC7X--32" target="r8Yt8SE6gwDf1YbaC7X--39">
          <mxGeometry relative="1" as="geometry" />
        </mxCell>
        <mxCell id="r8Yt8SE6gwDf1YbaC7X--32" value="&lt;font style=&quot;font-size: 11px;&quot;&gt;+MainFrame(Bank&amp;lt;Account&amp;gt;)&amp;nbsp;&lt;br&gt;&amp;nbsp;-initComponents(): void&amp;nbsp;&lt;br&gt;&amp;nbsp;-createAccount(): void&amp;nbsp;&lt;br&gt;&amp;nbsp;-deposit(): void&amp;nbsp;&lt;br&gt;-withdraw(): void&amp;nbsp;&lt;br&gt;-checkBalance(): void&amp;nbsp;&lt;br&gt;&amp;nbsp;-playSound(String): void  &lt;/font&gt;" style="html=1;whiteSpace=wrap;align=left;" vertex="1" parent="1">
          <mxGeometry x="340" y="274" width="230" height="116" as="geometry" />
        </mxCell>
        <mxCell id="r8Yt8SE6gwDf1YbaC7X--39" value=" Bank&amp;lt;T&amp;gt; " style="swimlane;fontStyle=1;align=center;verticalAlign=top;childLayout=stackLayout;horizontal=1;startSize=26;horizontalStack=0;resizeParent=1;resizeParentMax=0;resizeLast=0;collapsible=1;marginBottom=0;whiteSpace=wrap;html=1;" vertex="1" parent="1">
          <mxGeometry x="140" y="440" width="190" height="170" as="geometry" />
        </mxCell>
        <mxCell id="r8Yt8SE6gwDf1YbaC7X--40" value=" -accounts: Map&amp;lt;String, T&amp;gt;" style="text;strokeColor=none;fillColor=none;align=left;verticalAlign=top;spacingLeft=4;spacingRight=4;overflow=hidden;rotatable=0;points=[[0,0.5],[1,0.5]];portConstraint=eastwest;whiteSpace=wrap;html=1;" vertex="1" parent="r8Yt8SE6gwDf1YbaC7X--39">
          <mxGeometry y="26" width="190" height="26" as="geometry" />
        </mxCell>
        <mxCell id="r8Yt8SE6gwDf1YbaC7X--41" value="" style="line;strokeWidth=1;fillColor=none;align=left;verticalAlign=middle;spacingTop=-1;spacingLeft=3;spacingRight=3;rotatable=0;labelPosition=right;points=[];portConstraint=eastwest;strokeColor=inherit;" vertex="1" parent="r8Yt8SE6gwDf1YbaC7X--39">
          <mxGeometry y="52" width="190" height="8" as="geometry" />
        </mxCell>
        <mxCell id="r8Yt8SE6gwDf1YbaC7X--42" value="+Bank()&amp;nbsp;&lt;br&gt;+addAccount(T): void&amp;nbsp;&lt;br&gt;+getAccount(String): T&amp;nbsp;&lt;br&gt;+deposit(String, float): void&amp;nbsp;&lt;br&gt;+withdraw(String, float): void&amp;nbsp;&lt;br&gt;+checkBalance(String): void " style="text;strokeColor=none;fillColor=none;align=left;verticalAlign=top;spacingLeft=4;spacingRight=4;overflow=hidden;rotatable=0;points=[[0,0.5],[1,0.5]];portConstraint=eastwest;whiteSpace=wrap;html=1;" vertex="1" parent="r8Yt8SE6gwDf1YbaC7X--39">
          <mxGeometry y="60" width="190" height="110" as="geometry" />
        </mxCell>
        <mxCell id="r8Yt8SE6gwDf1YbaC7X--43" value="  AbstractAccount " style="swimlane;fontStyle=1;align=center;verticalAlign=top;childLayout=stackLayout;horizontal=1;startSize=26;horizontalStack=0;resizeParent=1;resizeParentMax=0;resizeLast=0;collapsible=1;marginBottom=0;whiteSpace=wrap;html=1;" vertex="1" parent="1">
          <mxGeometry x="90" y="780" width="200" height="260" as="geometry" />
        </mxCell>
        <mxCell id="r8Yt8SE6gwDf1YbaC7X--44" value=" #accountNumber: String&amp;nbsp;&lt;br&gt;#balance: float&amp;nbsp;&lt;br&gt;#customer: Customer" style="text;strokeColor=none;fillColor=none;align=left;verticalAlign=top;spacingLeft=4;spacingRight=4;overflow=hidden;rotatable=0;points=[[0,0.5],[1,0.5]];portConstraint=eastwest;whiteSpace=wrap;html=1;" vertex="1" parent="r8Yt8SE6gwDf1YbaC7X--43">
          <mxGeometry y="26" width="200" height="54" as="geometry" />
        </mxCell>
        <mxCell id="r8Yt8SE6gwDf1YbaC7X--45" value="" style="line;strokeWidth=1;fillColor=none;align=left;verticalAlign=middle;spacingTop=-1;spacingLeft=3;spacingRight=3;rotatable=0;labelPosition=right;points=[];portConstraint=eastwest;strokeColor=inherit;" vertex="1" parent="r8Yt8SE6gwDf1YbaC7X--43">
          <mxGeometry y="80" width="200" height="20" as="geometry" />
        </mxCell>
        <mxCell id="r8Yt8SE6gwDf1YbaC7X--46" value="+AbstractAccount(String, Customer)&amp;nbsp; &lt;br&gt;+getAccountNumber(): String&amp;nbsp; +getBalance(): float&amp;nbsp; +getCustomer(): Customer +deposit(float): void +withdraw(float): void" style="text;strokeColor=none;fillColor=none;align=left;verticalAlign=top;spacingLeft=4;spacingRight=4;overflow=hidden;rotatable=0;points=[[0,0.5],[1,0.5]];portConstraint=eastwest;whiteSpace=wrap;html=1;" vertex="1" parent="r8Yt8SE6gwDf1YbaC7X--43">
          <mxGeometry y="100" width="200" height="160" as="geometry" />
        </mxCell>
        <mxCell id="r8Yt8SE6gwDf1YbaC7X--76" style="edgeStyle=orthogonalEdgeStyle;rounded=0;orthogonalLoop=1;jettySize=auto;html=1;exitX=0.5;exitY=0;exitDx=0;exitDy=0;entryX=0.467;entryY=1;entryDx=0;entryDy=0;entryPerimeter=0;" edge="1" parent="1" source="r8Yt8SE6gwDf1YbaC7X--47" target="r8Yt8SE6gwDf1YbaC7X--42">
          <mxGeometry relative="1" as="geometry" />
        </mxCell>
        <mxCell id="r8Yt8SE6gwDf1YbaC7X--47" value="BankOperations " style="swimlane;fontStyle=0;childLayout=stackLayout;horizontal=1;startSize=26;fillColor=none;horizontalStack=0;resizeParent=1;resizeParentMax=0;resizeLast=0;collapsible=1;marginBottom=0;whiteSpace=wrap;html=1;" vertex="1" parent="1">
          <mxGeometry x="140" y="640" width="160" height="100" as="geometry" />
        </mxCell>
        <mxCell id="r8Yt8SE6gwDf1YbaC7X--50" value="&lt;font style=&quot;font-size: 10px;&quot;&gt;+deposit(String, float): void&amp;nbsp;&lt;br&gt;&amp;nbsp;+withdraw(String, float):&lt;br&gt;void&amp;nbsp;&lt;br&gt;+checkBalance(String): void&lt;/font&gt;" style="text;strokeColor=none;fillColor=none;align=left;verticalAlign=top;spacingLeft=4;spacingRight=4;overflow=hidden;rotatable=0;points=[[0,0.5],[1,0.5]];portConstraint=eastwest;whiteSpace=wrap;html=1;" vertex="1" parent="r8Yt8SE6gwDf1YbaC7X--47">
          <mxGeometry y="26" width="160" height="74" as="geometry" />
        </mxCell>
        <mxCell id="r8Yt8SE6gwDf1YbaC7X--86" style="edgeStyle=orthogonalEdgeStyle;rounded=0;orthogonalLoop=1;jettySize=auto;html=1;exitX=0.5;exitY=0;exitDx=0;exitDy=0;" edge="1" parent="1" source="r8Yt8SE6gwDf1YbaC7X--51">
          <mxGeometry relative="1" as="geometry">
            <mxPoint x="430" y="1040" as="targetPoint" />
          </mxGeometry>
        </mxCell>
        <mxCell id="r8Yt8SE6gwDf1YbaC7X--51" value=" CheckingAccount" style="swimlane;fontStyle=1;align=center;verticalAlign=top;childLayout=stackLayout;horizontal=1;startSize=26;horizontalStack=0;resizeParent=1;resizeParentMax=0;resizeLast=0;collapsible=1;marginBottom=0;whiteSpace=wrap;html=1;" vertex="1" parent="1">
          <mxGeometry x="110" y="1140" width="190" height="130" as="geometry" />
        </mxCell>
        <mxCell id="r8Yt8SE6gwDf1YbaC7X--52" value="-overdraftLimit: float" style="text;strokeColor=none;fillColor=none;align=left;verticalAlign=top;spacingLeft=4;spacingRight=4;overflow=hidden;rotatable=0;points=[[0,0.5],[1,0.5]];portConstraint=eastwest;whiteSpace=wrap;html=1;" vertex="1" parent="r8Yt8SE6gwDf1YbaC7X--51">
          <mxGeometry y="26" width="190" height="26" as="geometry" />
        </mxCell>
        <mxCell id="r8Yt8SE6gwDf1YbaC7X--53" value="" style="line;strokeWidth=1;fillColor=none;align=left;verticalAlign=middle;spacingTop=-1;spacingLeft=3;spacingRight=3;rotatable=0;labelPosition=right;points=[];portConstraint=eastwest;strokeColor=inherit;" vertex="1" parent="r8Yt8SE6gwDf1YbaC7X--51">
          <mxGeometry y="52" width="190" height="8" as="geometry" />
        </mxCell>
        <mxCell id="r8Yt8SE6gwDf1YbaC7X--54" value="+CheckingAccount(String, Customer, float)&amp;nbsp;&lt;br&gt;&amp;nbsp;+withdraw(float): void " style="text;strokeColor=none;fillColor=none;align=left;verticalAlign=top;spacingLeft=4;spacingRight=4;overflow=hidden;rotatable=0;points=[[0,0.5],[1,0.5]];portConstraint=eastwest;whiteSpace=wrap;html=1;" vertex="1" parent="r8Yt8SE6gwDf1YbaC7X--51">
          <mxGeometry y="60" width="190" height="70" as="geometry" />
        </mxCell>
        <mxCell id="r8Yt8SE6gwDf1YbaC7X--84" style="edgeStyle=orthogonalEdgeStyle;rounded=0;orthogonalLoop=1;jettySize=auto;html=1;exitX=0.5;exitY=0;exitDx=0;exitDy=0;" edge="1" parent="1" source="r8Yt8SE6gwDf1YbaC7X--55">
          <mxGeometry relative="1" as="geometry">
            <mxPoint x="484.57142857142867" y="1040" as="targetPoint" />
          </mxGeometry>
        </mxCell>
        <mxCell id="r8Yt8SE6gwDf1YbaC7X--55" value="SavingsAccount" style="swimlane;fontStyle=1;align=center;verticalAlign=top;childLayout=stackLayout;horizontal=1;startSize=26;horizontalStack=0;resizeParent=1;resizeParentMax=0;resizeLast=0;collapsible=1;marginBottom=0;whiteSpace=wrap;html=1;" vertex="1" parent="1">
          <mxGeometry x="540" y="1150" width="270" height="160" as="geometry" />
        </mxCell>
        <mxCell id="r8Yt8SE6gwDf1YbaC7X--56" value="-interestRate: float " style="text;strokeColor=none;fillColor=none;align=left;verticalAlign=top;spacingLeft=4;spacingRight=4;overflow=hidden;rotatable=0;points=[[0,0.5],[1,0.5]];portConstraint=eastwest;whiteSpace=wrap;html=1;" vertex="1" parent="r8Yt8SE6gwDf1YbaC7X--55">
          <mxGeometry y="26" width="270" height="26" as="geometry" />
        </mxCell>
        <mxCell id="r8Yt8SE6gwDf1YbaC7X--57" value="" style="line;strokeWidth=1;fillColor=none;align=left;verticalAlign=middle;spacingTop=-1;spacingLeft=3;spacingRight=3;rotatable=0;labelPosition=right;points=[];portConstraint=eastwest;strokeColor=inherit;" vertex="1" parent="r8Yt8SE6gwDf1YbaC7X--55">
          <mxGeometry y="52" width="270" height="8" as="geometry" />
        </mxCell>
        <mxCell id="r8Yt8SE6gwDf1YbaC7X--58" value="+SavingsAccount(String, Customer, float)&amp;nbsp;&lt;br&gt;+applyInterest(): void&amp;nbsp;&lt;br&gt;+deposit(float): void&amp;nbsp;&lt;br&gt;+withdraw(float): void" style="text;strokeColor=none;fillColor=none;align=left;verticalAlign=top;spacingLeft=4;spacingRight=4;overflow=hidden;rotatable=0;points=[[0,0.5],[1,0.5]];portConstraint=eastwest;whiteSpace=wrap;html=1;" vertex="1" parent="r8Yt8SE6gwDf1YbaC7X--55">
          <mxGeometry y="60" width="270" height="100" as="geometry" />
        </mxCell>
        <mxCell id="r8Yt8SE6gwDf1YbaC7X--59" value="Customer" style="swimlane;fontStyle=1;align=center;verticalAlign=top;childLayout=stackLayout;horizontal=1;startSize=26;horizontalStack=0;resizeParent=1;resizeParentMax=0;resizeLast=0;collapsible=1;marginBottom=0;whiteSpace=wrap;html=1;" vertex="1" parent="1">
          <mxGeometry x="400" y="1360" width="160" height="140" as="geometry" />
        </mxCell>
        <mxCell id="r8Yt8SE6gwDf1YbaC7X--60" value="-name: String&amp;nbsp;&lt;br&gt;&amp;nbsp;-customerId: String " style="text;strokeColor=none;fillColor=none;align=left;verticalAlign=top;spacingLeft=4;spacingRight=4;overflow=hidden;rotatable=0;points=[[0,0.5],[1,0.5]];portConstraint=eastwest;whiteSpace=wrap;html=1;" vertex="1" parent="r8Yt8SE6gwDf1YbaC7X--59">
          <mxGeometry y="26" width="160" height="44" as="geometry" />
        </mxCell>
        <mxCell id="r8Yt8SE6gwDf1YbaC7X--61" value="" style="line;strokeWidth=1;fillColor=none;align=left;verticalAlign=middle;spacingTop=-1;spacingLeft=3;spacingRight=3;rotatable=0;labelPosition=right;points=[];portConstraint=eastwest;strokeColor=inherit;" vertex="1" parent="r8Yt8SE6gwDf1YbaC7X--59">
          <mxGeometry y="70" width="160" height="8" as="geometry" />
        </mxCell>
        <mxCell id="r8Yt8SE6gwDf1YbaC7X--62" value=" +Customer(String, String)&amp;nbsp;&lt;br&gt;+getName(): String&amp;nbsp;&lt;br&gt;+getCustomerId(): String" style="text;strokeColor=none;fillColor=none;align=left;verticalAlign=top;spacingLeft=4;spacingRight=4;overflow=hidden;rotatable=0;points=[[0,0.5],[1,0.5]];portConstraint=eastwest;whiteSpace=wrap;html=1;" vertex="1" parent="r8Yt8SE6gwDf1YbaC7X--59">
          <mxGeometry y="78" width="160" height="62" as="geometry" />
        </mxCell>
        <mxCell id="r8Yt8SE6gwDf1YbaC7X--87" style="edgeStyle=orthogonalEdgeStyle;rounded=0;orthogonalLoop=1;jettySize=auto;html=1;exitX=0.5;exitY=0;exitDx=0;exitDy=0;" edge="1" parent="1" source="r8Yt8SE6gwDf1YbaC7X--67">
          <mxGeometry relative="1" as="geometry">
            <mxPoint x="460.14285714285734" y="1500" as="targetPoint" />
          </mxGeometry>
        </mxCell>
        <mxCell id="r8Yt8SE6gwDf1YbaC7X--67" value="CustomerDetails       " style="swimlane;fontStyle=0;childLayout=stackLayout;horizontal=1;startSize=26;fillColor=none;horizontalStack=0;resizeParent=1;resizeParentMax=0;resizeLast=0;collapsible=1;marginBottom=0;whiteSpace=wrap;html=1;" vertex="1" parent="1">
          <mxGeometry x="380" y="1609" width="160" height="110" as="geometry" />
        </mxCell>
        <mxCell id="r8Yt8SE6gwDf1YbaC7X--68" value=" +getName(): String&amp;nbsp;&lt;br&gt;&amp;nbsp;+getCustomerId(): String " style="text;strokeColor=none;fillColor=none;align=left;verticalAlign=top;spacingLeft=4;spacingRight=4;overflow=hidden;rotatable=0;points=[[0,0.5],[1,0.5]];portConstraint=eastwest;whiteSpace=wrap;html=1;" vertex="1" parent="r8Yt8SE6gwDf1YbaC7X--67">
          <mxGeometry y="26" width="160" height="84" as="geometry" />
        </mxCell>
        <mxCell id="r8Yt8SE6gwDf1YbaC7X--92" style="edgeStyle=orthogonalEdgeStyle;rounded=0;orthogonalLoop=1;jettySize=auto;html=1;exitX=0.5;exitY=0;exitDx=0;exitDy=0;" edge="1" parent="1" source="r8Yt8SE6gwDf1YbaC7X--71">
          <mxGeometry relative="1" as="geometry">
            <mxPoint x="450" y="1730" as="targetPoint" />
          </mxGeometry>
        </mxCell>
        <mxCell id="r8Yt8SE6gwDf1YbaC7X--71" value="Main" style="swimlane;fontStyle=0;childLayout=stackLayout;horizontal=1;startSize=26;fillColor=none;horizontalStack=0;resizeParent=1;resizeParentMax=0;resizeLast=0;collapsible=1;marginBottom=0;whiteSpace=wrap;html=1;" vertex="1" parent="1">
          <mxGeometry x="400" y="1830" width="140" height="70" as="geometry" />
        </mxCell>
        <mxCell id="r8Yt8SE6gwDf1YbaC7X--72" value="+main(String[] args): void" style="text;strokeColor=none;fillColor=none;align=left;verticalAlign=top;spacingLeft=4;spacingRight=4;overflow=hidden;rotatable=0;points=[[0,0.5],[1,0.5]];portConstraint=eastwest;whiteSpace=wrap;html=1;" vertex="1" parent="r8Yt8SE6gwDf1YbaC7X--71">
          <mxGeometry y="26" width="140" height="44" as="geometry" />
        </mxCell>
        <mxCell id="r8Yt8SE6gwDf1YbaC7X--77" value="Account" style="swimlane;fontStyle=1;align=center;verticalAlign=top;childLayout=stackLayout;horizontal=1;startSize=26;horizontalStack=0;resizeParent=1;resizeParentMax=0;resizeLast=0;collapsible=1;marginBottom=0;whiteSpace=wrap;html=1;" vertex="1" parent="1">
          <mxGeometry x="360" y="780" width="230" height="250" as="geometry" />
        </mxCell>
        <mxCell id="r8Yt8SE6gwDf1YbaC7X--78" value=" -overdraftLimit: float&amp;nbsp;&lt;br&gt;-interestRate: float " style="text;strokeColor=none;fillColor=none;align=left;verticalAlign=top;spacingLeft=4;spacingRight=4;overflow=hidden;rotatable=0;points=[[0,0.5],[1,0.5]];portConstraint=eastwest;whiteSpace=wrap;html=1;" vertex="1" parent="r8Yt8SE6gwDf1YbaC7X--77">
          <mxGeometry y="26" width="230" height="54" as="geometry" />
        </mxCell>
        <mxCell id="r8Yt8SE6gwDf1YbaC7X--79" value="" style="line;strokeWidth=1;fillColor=none;align=left;verticalAlign=middle;spacingTop=-1;spacingLeft=3;spacingRight=3;rotatable=0;labelPosition=right;points=[];portConstraint=eastwest;strokeColor=inherit;" vertex="1" parent="r8Yt8SE6gwDf1YbaC7X--77">
          <mxGeometry y="80" width="230" height="8" as="geometry" />
        </mxCell>
        <mxCell id="r8Yt8SE6gwDf1YbaC7X--80" value="+Account(String, Customer, float, float)&amp;nbsp;&lt;br&gt;+deposit(float): void&amp;nbsp;&lt;br&gt;+withdraw(float): void&amp;nbsp;&lt;br&gt;+applyInterest(): void&amp;nbsp;&lt;br&gt;+getOverdraftLimit(): float&lt;br&gt;+setOverdraftLimit(float): void&amp;nbsp;&lt;br&gt;+getInterestRate(): float&amp;nbsp;&lt;br&gt;+setInterestRate(float): void" style="text;strokeColor=none;fillColor=none;align=left;verticalAlign=top;spacingLeft=4;spacingRight=4;overflow=hidden;rotatable=0;points=[[0,0.5],[1,0.5]];portConstraint=eastwest;whiteSpace=wrap;html=1;" vertex="1" parent="r8Yt8SE6gwDf1YbaC7X--77">
          <mxGeometry y="88" width="230" height="162" as="geometry" />
        </mxCell>
        <mxCell id="r8Yt8SE6gwDf1YbaC7X--82" style="edgeStyle=orthogonalEdgeStyle;rounded=0;orthogonalLoop=1;jettySize=auto;html=1;exitX=0;exitY=0.5;exitDx=0;exitDy=0;entryX=1.02;entryY=0.389;entryDx=0;entryDy=0;entryPerimeter=0;" edge="1" parent="1" source="r8Yt8SE6gwDf1YbaC7X--80" target="r8Yt8SE6gwDf1YbaC7X--46">
          <mxGeometry relative="1" as="geometry" />
        </mxCell>
        <mxCell id="r8Yt8SE6gwDf1YbaC7X--89" value="" style="endArrow=none;html=1;rounded=0;exitX=0.435;exitY=-0.037;exitDx=0;exitDy=0;exitPerimeter=0;entryX=0.467;entryY=1.03;entryDx=0;entryDy=0;entryPerimeter=0;" edge="1" parent="1" source="r8Yt8SE6gwDf1YbaC7X--59" target="r8Yt8SE6gwDf1YbaC7X--80">
          <mxGeometry width="50" height="50" relative="1" as="geometry">
            <mxPoint x="470" y="1250" as="sourcePoint" />
            <mxPoint x="520" y="1200" as="targetPoint" />
          </mxGeometry>
        </mxCell>
      </root>
    </mxGraphModel>
  </diagram>
</mxfile>
